<svg width="42" height="42" viewBox="0 0 36 31" fill="none" xmlns="http://www.w3.org/2000/svg">
<path d="M18 6.75C18 5.42392 18.5268 4.15215 19.4645 3.21447C20.4021 2.27678 21.6739 1.75 23 1.75H33C33.3315 1.75 33.6495 1.8817 33.8839 2.11612C34.1183 2.35054 34.25 2.66848 34.25 3V23C34.25 23.3315 34.1183 23.6495 33.8839 23.8839C33.6495 24.1183 33.3315 24.25 33 24.25H23C21.6739 24.25 20.4021 24.7768 19.4645 25.7145C18.5268 26.6521 18 27.9239 18 29.25" stroke="#34DC75" stroke-width="3.5" stroke-linecap="round" stroke-linejoin="round"/>
<path d="M1.75 23C1.75 23.3315 1.8817 23.6495 2.11612 23.8839C2.35054 24.1183 2.66848 24.25 3 24.25H13C14.3261 24.25 15.5979 24.7768 16.5355 25.7145C17.4732 26.6521 18 27.9239 18 29.25V6.75C18 5.42392 17.4732 4.15215 16.5355 3.21447C15.5979 2.27678 14.3261 1.75 13 1.75H3C2.66848 1.75 2.35054 1.8817 2.11612 2.11612C1.8817 2.35054 1.75 2.66848 1.75 3V23Z" stroke="#34DC75" stroke-width="3.5" stroke-linecap="round" stroke-linejoin="round"/>
</svg>
