<svg width="42" height="42" viewBox="0 0 42 42" fill="none" xmlns="http://www.w3.org/2000/svg">
<path d="M15.75 18.375H28.875" stroke="#34DC75" stroke-width="3.5" stroke-linecap="round" stroke-linejoin="round"/>
<path d="M15.75 23.625H28.875" stroke="#34DC75" stroke-width="3.5" stroke-linecap="round" stroke-linejoin="round"/>
<path d="M5.25 32.8125C5.94619 32.8125 6.61387 32.5359 7.10616 32.0437C7.59844 31.5514 7.875 30.8837 7.875 30.1875V10.5C7.875 10.1519 8.01328 9.81806 8.25942 9.57192C8.50556 9.32578 8.8394 9.1875 9.1875 9.1875H35.4375C35.7856 9.1875 36.1194 9.32578 36.3656 9.57192C36.6117 9.81806 36.75 10.1519 36.75 10.5V30.1875C36.75 30.8837 36.4734 31.5514 35.9812 32.0437C35.4889 32.5359 34.8212 32.8125 34.125 32.8125H5.25Z" stroke="#34DC75" stroke-width="3.5" stroke-linecap="round" stroke-linejoin="round"/>
<path d="M5.25 32.8125C4.55381 32.8125 3.88613 32.5359 3.39384 32.0437C2.90156 31.5514 2.625 30.8837 2.625 30.1875V14.4375" stroke="#34DC75" stroke-width="3.5" stroke-linecap="round" stroke-linejoin="round"/>
</svg>
