<svg width="42" height="42" viewBox="0 0 42 42" fill="none" xmlns="http://www.w3.org/2000/svg">
<path d="M4.37502 15.505L20.125 24.605C20.3911 24.7586 20.6928 24.8394 21 24.8394C21.3072 24.8394 21.609 24.7586 21.875 24.605L37.625 15.505C37.8895 15.3523 38.1094 15.133 38.2629 14.869C38.4164 14.605 38.4982 14.3054 38.5 14C38.5012 13.6916 38.421 13.3884 38.2673 13.121C38.1137 12.8537 37.8921 12.6317 37.625 12.4775L21.875 3.39498C21.609 3.24138 21.3072 3.16052 21 3.16052C20.6928 3.16052 20.3911 3.24138 20.125 3.39498L4.37502 12.4775C4.10797 12.6317 3.88639 12.8537 3.73273 13.121C3.57908 13.3884 3.4988 13.6916 3.50002 14C3.50187 14.3054 3.5836 14.605 3.7371 14.869C3.89061 15.133 4.11053 15.3523 4.37502 15.505ZM21 6.99998L33.25 14L21 21L8.75002 14L21 6.99998ZM35.875 19.5475L21 28L6.12502 19.4775C5.92529 19.3618 5.70464 19.2867 5.47577 19.2566C5.24691 19.2266 5.01436 19.2421 4.79152 19.3023C4.56867 19.3624 4.35993 19.4661 4.17733 19.6073C3.99472 19.7485 3.84185 19.9244 3.72752 20.125C3.49937 20.5268 3.43941 21.0026 3.56071 21.4484C3.68201 21.8943 3.97474 22.2741 4.37502 22.505L20.125 31.605C20.3911 31.7586 20.6928 31.8394 21 31.8394C21.3072 31.8394 21.609 31.7586 21.875 31.605L37.625 22.505C38.0253 22.2741 38.318 21.8943 38.4393 21.4484C38.5606 21.0026 38.5007 20.5268 38.2725 20.125C38.1582 19.9244 38.0053 19.7485 37.8227 19.6073C37.6401 19.4661 37.4314 19.3624 37.2085 19.3023C36.9857 19.2421 36.7531 19.2266 36.5243 19.2566C36.2954 19.2867 36.0748 19.3618 35.875 19.4775V19.5475ZM35.875 26.5475L21 35L6.12502 26.4775C5.92529 26.3618 5.70464 26.2867 5.47577 26.2566C5.24691 26.2266 5.01436 26.2421 4.79152 26.3023C4.56867 26.3624 4.35993 26.4661 4.17733 26.6073C3.99472 26.7485 3.84185 26.9244 3.72752 27.125C3.49937 27.5268 3.43941 28.0026 3.56071 28.4484C3.68201 28.8943 3.97474 29.2741 4.37502 29.505L20.125 38.605C20.3911 38.7586 20.6928 38.8394 21 38.8394C21.3072 38.8394 21.609 38.7586 21.875 38.605L37.625 29.505C38.0253 29.2741 38.318 28.8943 38.4393 28.4484C38.5606 28.0026 38.5007 27.5268 38.2725 27.125C38.1582 26.9244 38.0053 26.7485 37.8227 26.6073C37.6401 26.4661 37.4314 26.3624 37.2085 26.3023C36.9857 26.2421 36.7531 26.2266 36.5243 26.2566C36.2954 26.2867 36.0748 26.3618 35.875 26.4775V26.5475Z" fill="#34DC75"/>
</svg>
