<svg width="42" height="42" viewBox="0 0 36 36" fill="none" xmlns="http://www.w3.org/2000/svg">
<path d="M9.25 25C8.90388 25 8.56554 25.1026 8.27775 25.2949C7.98997 25.4872 7.76566 25.7605 7.63321 26.0803C7.50076 26.4001 7.4661 26.7519 7.53363 27.0914C7.60115 27.4309 7.76782 27.7427 8.01256 27.9874C8.25731 28.2322 8.56913 28.3988 8.90859 28.4664C9.24806 28.5339 9.59993 28.4992 9.9197 28.3668C10.2395 28.2343 10.5128 28.01 10.7051 27.7222C10.8974 27.4345 11 27.0961 11 26.75C11 26.2859 10.8156 25.8407 10.4874 25.5126C10.1592 25.1844 9.71413 25 9.25 25ZM30.355 18L32.5075 15.8475C33.4907 14.8631 34.0429 13.5288 34.0429 12.1375C34.0429 10.7462 33.4907 9.41188 32.5075 8.4275L27.555 3.4925C26.5706 2.50935 25.2363 1.95712 23.845 1.95712C22.4537 1.95712 21.1194 2.50935 20.135 3.4925L18 5.645C17.9725 4.27089 17.4073 2.96235 16.4257 2.00038C15.4441 1.03841 14.1244 0.499725 12.75 0.5H5.75C4.35761 0.5 3.02226 1.05312 2.03769 2.03769C1.05312 3.02226 0.5 4.35761 0.5 5.75V30.25C0.5 31.6424 1.05312 32.9777 2.03769 33.9623C3.02226 34.9469 4.35761 35.5 5.75 35.5H30.25C31.6424 35.5 32.9777 34.9469 33.9623 33.9623C34.9469 32.9777 35.5 31.6424 35.5 30.25V23.25C35.5003 21.8756 34.9616 20.5559 33.9996 19.5743C33.0376 18.5927 31.7291 18.0275 30.355 18ZM14.5 30.25C14.5 30.7141 14.3156 31.1593 13.9874 31.4874C13.6592 31.8156 13.2141 32 12.75 32H5.75C5.28587 32 4.84075 31.8156 4.51256 31.4874C4.18438 31.1593 4 30.7141 4 30.25V5.75C4 5.28587 4.18438 4.84075 4.51256 4.51256C4.84075 4.18437 5.28587 4 5.75 4H12.75C13.2141 4 13.6592 4.18437 13.9874 4.51256C14.3156 4.84075 14.5 5.28587 14.5 5.75V30.25ZM18 10.58L22.62 5.96C22.9479 5.63406 23.3914 5.45111 23.8538 5.45111C24.3161 5.45111 24.7596 5.63406 25.0875 5.96L30.04 11C30.3659 11.3279 30.5489 11.7714 30.5489 12.2337C30.5489 12.6961 30.3659 13.1396 30.04 13.4675L25 18.5075L18 25.42V10.58ZM32 30.25C32 30.7141 31.8156 31.1593 31.4874 31.4874C31.1593 31.8156 30.7141 32 30.25 32H17.685C17.8645 31.4813 17.9648 30.9386 17.9825 30.39L26.8725 21.5H30.25C30.7141 21.5 31.1593 21.6844 31.4874 22.0126C31.8156 22.3408 32 22.7859 32 23.25V30.25Z" fill="#34DC75"/>
</svg>
